<svg width="184" height="145" viewBox="0 0 184 145" fill="none" xmlns="http://www.w3.org/2000/svg">
<path d="M101.722 11.632L160.194 93.2158C164.699 99.5021 160.206 108.25 152.472 108.25H35.5279C27.7939 108.25 23.301 99.5021 27.8064 93.2158L86.2784 11.632C90.0682 6.34417 97.9318 6.34418 101.722 11.632Z" fill="#D9D9D9" stroke="#001AFF"/>
<path d="M108.5 41.5C108.5 49.7999 101.993 56.5 94 56.5C86.0072 56.5 79.5 49.7999 79.5 41.5C79.5 33.2001 86.0072 26.5 94 26.5C101.993 26.5 108.5 33.2001 108.5 41.5Z" fill="white" stroke="#001AFF"/>
<line x1="31.3299" y1="108.376" x2="0.851484" y2="135.137" stroke="#001AFF"/>
<line x1="154.33" y1="108.376" x2="123.851" y2="135.137" stroke="#001AFF"/>
<line x1="113.33" y1="108.376" x2="82.8515" y2="135.137" stroke="#001AFF"/>
<line x1="72.3299" y1="108.376" x2="41.8515" y2="135.137" stroke="#001AFF"/>
</svg>
