<svg width="180" height="152" viewBox="0 0 180 152" fill="none" xmlns="http://www.w3.org/2000/svg">
<path d="M97.7216 11.632L156.194 93.2158C160.699 99.5021 156.206 108.25 148.472 108.25H31.5279C23.7939 108.25 19.301 99.5021 23.8064 93.2158L82.2784 11.632C86.0682 6.34417 93.9318 6.34418 97.7216 11.632Z" fill="#D9D9D9" stroke="#001AFF"/>
<path d="M104.5 41.5C104.5 49.7999 97.9928 56.5 90 56.5C82.0072 56.5 75.5 49.7999 75.5 41.5C75.5 33.2001 82.0072 26.5 90 26.5C97.9928 26.5 104.5 33.2001 104.5 41.5Z" fill="white" stroke="#001AFF"/>
<path d="M78.5 130C78.5 141.864 68.6609 151.5 56.5 151.5C44.3391 151.5 34.5 141.864 34.5 130C34.5 118.136 44.3391 108.5 56.5 108.5C68.6609 108.5 78.5 118.136 78.5 130Z" fill="#D9D9D9" stroke="#001AFF"/>
<path d="M146.5 130C146.5 141.864 136.661 151.5 124.5 151.5C112.339 151.5 102.5 141.864 102.5 130C102.5 118.136 112.339 108.5 124.5 108.5C136.661 108.5 146.5 118.136 146.5 130Z" fill="#D9D9D9" stroke="#001AFF"/>
</svg>
